# AST/ASF file generated using VICON BodyLanguage
# -----------------------------------------------
:version 1.10
:name VICON
:units
  mass 1.0
  length 0.1
  angle deg
:documentation
   .ast/.asf automatically generated from VICON data using
   VICON BodyBuilder and BodyLanguage model FULLBODY5.MOD
:root
   order TX TY TZ RZ RY RX
   axis XYZ
   position 0 0 0  
   orientation 0 -0 0 
:bonedata
  begin
     id 1 
     name lhipjoint
     direction 0.961525 -0.229516 0.150972 
     length 0.502153 
     axis 0 -0 0  XYZ
  end
  begin
     id 2 
     name lfemur
     direction 0.173648 -0.984808 0  
     length 1.83052  
     axis 0 -0 10  XYZ
    dof rx ry rz
    limits (-180.0 180.0)
           (-180.0 180.0)
           (-180.0 180.0)
  end
  begin
     id 3 
     name ltibia
     direction 0.173629 -0.984811 0   
     length 1.50296   
     axis 0 -0 10   XYZ
    dof rx ry rz
    limits (-180.0 180.0)
           (-180.0 180.0)
           (-180.0 180.0)
  end
  begin
     id 4 
     name lfoot
     direction 7.59329e-012 -0.227408 0.9738   
     length 0.574743   
     axis -90 -1.73656e-015 10   XYZ
    dof rx ry rz
    limits (-180.0 180.0)
           (-180.0 180.0)
           (-180.0 180.0)
  end
  begin
     id 5 
     name ltoes
     direction 7.79885e-012 -4.41741e-011 1   
     length 0.28489   
     axis -90 -1.73656e-015 10   XYZ
    dof rx ry rz
    limits (-180.0 180.0)
           (-180.0 180.0)
           (-180.0 180.0)
  end
  begin
     id 6 
     name rhipjoint
     direction -0.970498 -0.201437 0.132502   
     length 0.572149  
     axis 0 -0 0  XYZ 
  end
  begin
     id 7 
     name rfemur
     direction -0.173648 -0.984808 0   
     length 1.71866   
     axis 0 -0 -10   XYZ
    dof rx ry rz
    limits (-180.0 180.0)
           (-180.0 180.0)
           (-180.0 180.0)
  end
  begin
     id 8 
     name rtibia
     direction -0.173624 -0.984812 0   
     length 1.42623   
     axis 0 -0 -10   XYZ
    dof rx ry rz
    limits (-180.0 180.0)
           (-180.0 180.0)
           (-180.0 180.0)
 end
 begin
     id 9 
     name rfoot
     direction -7.12931e-012 -0.404275 0.914637   
     length 0.524692  
     axis -90 1.73656e-015 -10   XYZ
    dof rx ry rz
    limits (-180.0 180.0)
           (-180.0 180.0)
           (-180.0 180.0)
  end
  begin
     id 10 
     name rtoes
     direction -7.79289e-012 -4.41454e-011 1   
     length 0.254983   
     axis -90 1.73656e-015 -10   XYZ
    dof rx ry rz
    limits (-180.0 180.0)
           (-180.0 180.0)
           (-180.0 180.0)
  end
  begin
     id 11 
     name lowerback
     direction -0.0214086 0.993738 0.109665   
     length 0.417614   
     axis 0 -0 0   XYZ
    dof rx ry rz
    limits (-180.0 180.0)
           (-180.0 180.0)
           (-180.0 180.0)
  end
  begin
     id 12 
     name upperback
     direction 8.15962e-005 0.99996 0.00893412   
     length 0.419234   
     axis 0 -0 0   XYZ
    dof rx ry rz
    limits (-180.0 180.0)
           (-180.0 180.0)
           (-180.0 180.0)
  end
  begin
     id 13 
     name thorax
     direction 0.00826031 0.999067 -0.0423848   
     length 0.424697   
     axis 0 -0 0   XYZ
    dof rx ry rz
    limits (-180.0 180.0)
           (-180.0 180.0)
           (-180.0 180.0)
  end
  begin
     id 14 
     name lowerneck
     direction -0.0196262 0.994272 -0.105058   
     length 0.355877   
     axis 0 -0 0   XYZ
    dof rx ry rz
    limits (-180.0 180.0)
           (-180.0 180.0)
           (-180.0 180.0)
  end
  begin
     id 15 
     name upperneck
     direction 0.000117372 0.999091 0.0426261   
     length 0.351054   
     axis 0 -0 0   XYZ
    dof rx ry rz
    limits (-180.0 180.0)
           (-180.0 180.0)
           (-180.0 180.0)
  end
  begin
     id 16
     name head
     direction 0.00157618 0.999651 0.0263619  
     length 0.374844  
     axis 0 -0 0   XYZ
    dof rx ry rz
    limits (-180.0 180.0)
           (-180.0 180.0)
           (-180.0 180.0)
  end
  begin
     id 17 
     name lshoulderjoint
     direction 0.981627 -0.190809 0  
     length 0.701763  
     axis 0 -0 -11   XYZ
    dof rx ry rz
    limits (-180.0 180.0)
           (-180.0 180.0)
           (-180.0 180.0)
  end
  begin
     id 18 
     name lhumerus
     direction 0.48481 -0.87462 -1.80676e-026   
     length 0.994704   
     axis -180 5.14477e-009 -151   XYZ
    dof rx ry rz
    limits (-180.0 180.0)
           (-180.0 180.0)
           (-180.0 180.0)
  end
  begin
     id 19
     name lradius
     direction 0.48481 -0.87462 -3.2569e-026   
     length 0.617638   
     axis -180 5.14477e-009 -151   XYZ
    dof rx ry rz
    limits (-180.0 180.0)
           (-180.0 180.0)
           (-180.0 180.0)
  end
  begin
     id 20
     name lwrist
     direction 0.48481 -0.87462 -6.73202e-026   
     length 0.308819   
     axis -180 5.14477e-009 -151   XYZ
    dof rx ry rz
    limits (-180.0 180.0)
           (-180.0 180.0)
           (-180.0 180.0)
  end
  begin
     id 21 
     name lhand
     direction 0.478366 -0.863761 -0.158376   
     length 0.291656   
     axis -180 5.14477e-009 -151   XYZ
    dof rx ry rz
    limits (-180.0 180.0)
           (-180.0 180.0)
           (-180.0 180.0)
  end
  begin
     id 22 
     name rshoulderjoint
     direction -0.981627 -0.190809 0   
     length 0.66654  
     axis 0 -0 11   XYZ 
    dof rx ry rz
    limits (-180.0 180.0)
           (-180.0 180.0)
           (-180.0 180.0)
  end
  begin
     id 23 
     name rhumerus
     direction -0.48481 -0.87462 1.77576e-026  
     length 1.15089   
     axis 180 5.14477e-009 151   XYZ
    dof rx ry rz
    limits (-180.0 180.0)
           (-180.0 180.0)
           (-180.0 180.0)
  end
  begin
     id 24 
     name rradius
     direction -0.48481 -0.87462 3.79421e-026   
     length 0.613887   
     axis 180 5.14477e-009 151   XYZ
    dof rx ry rz
    limits (-180.0 180.0)
           (-180.0 180.0)
           (-180.0 180.0)
  end
  begin
     id 25 
     name rwrist
     direction -0.48481 -0.87462 5.43623e-026   
     length 0.306944   
     axis 180 5.14477e-009 151   XYZ
    dof rx ry rz
    limits (-180.0 180.0)
           (-180.0 180.0)
           (-180.0 180.0)
  end
  begin
     id 26
     name rhand
     direction -0.479273 -0.864638 -0.150661   
     length 0.306429   
     axis 180 5.14477e-009 151   XYZ
    dof rx ry rz
    limits (-180.0 180.0)
           (-180.0 180.0)
           (-180.0 180.0)
  end
:hierarchy
  begin
    root lhipjoint rhipjoint lowerback 
    lhipjoint lfemur
    lfemur ltibia
    ltibia lfoot
    lfoot ltoes
    rhipjoint rfemur
    rfemur rtibia
    rtibia rfoot
    rfoot rtoes
    lowerback upperback
    upperback thorax
    thorax lowerneck lshoulderjoint rshoulderjoint
    lowerneck upperneck
    upperneck head
    lshoulderjoint lhumerus
    lhumerus lradius
    lradius lwrist
    lwrist lhand
    rshoulderjoint rhumerus
    rhumerus rradius
    rradius rwrist
    rwrist rhand
  end

:FULLY-SPECIFIED
:DEGREES
2503
root -0.362414 3.61932 -0.363844 -272.411 -75.482 82.9468
lowerback -17.054 -1.54497 -4.19009
upperback -5.12942 -1.60846 -0.107398
thorax 4.16356 -0.921566 1.92474
lowerneck 15.3 0.789702 -3.71951
upperneck -4.68023 0.393365 1.18874
head -3.86352 0.182151 0.934038
rshoulderjoint 3.46482 -4.72713 -47.3044
rhumerus 30.9264 -79.8117 -43.2177
rradius 42.9944 -1.94411e-013 -5.61567e-014
rwrist 4.03862e-013 2.20021 1.68818e-013
rhand 18.2697 -2.14894 5.46597
lshoulderjoint 6.74884 11.5909 41.4967
lhumerus 30.3956 64.6633 33.3623
lradius 37.7323 1.49486e-013 7.31528e-014
lwrist 1.97798e-013 -0.505754 -6.04329e-014
lhand 12.9578 0.828956 -1.78389
rfemur -8.82562 2.80924 9.54686
rtibia 1.51076e-014 -5.96354e-015 -8.74653e-015
rfoot -5.60065 15.872 -12.1521
rtoes -1.08934e-013 9.70069e-014 1.16885e-013
lfemur -8.10174 -14.6055 -17.8518
ltibia 1.11319e-014 1.90833e-014 -1.98785e-014
lfoot -5.41618 -4.59031 12.7452
ltoes -7.69297e-014 6.59919e-014 4.59193e-014
2504
root -0.364202 3.61977 -0.364179 -272.608 -75.4711 82.72
lowerback -17.0347 -1.56147 -4.25543
upperback -5.13511 -1.61971 -0.122793
thorax 4.14886 -0.926984 1.94358
lowerneck 15.3279 0.789095 -3.72955
upperneck -4.6973 0.386438 1.15587
head -3.87293 0.180868 0.925996
rshoulderjoint 3.51697 -4.7688 -47.4746
rhumerus 35.2211 -80.5055 -46.9956
rradius 42.9713 1.06747e-013 3.06625e-014
rwrist -1.11638e-012 2.08755 -5.98988e-014
rhand 18.4419 -2.12732 5.22337
lshoulderjoint 6.81096 11.5523 41.812
lhumerus 38.5534 67.6812 41.7144
lradius 37.7644 -6.36111e-015 6.36111e-014
lwrist -7.20197e-013 -0.030753 1.08139e-013
lhand 12.9604 0.398157 -0.0220059
rfemur -8.79806 2.7541 9.5331
rtibia -1.82882e-014 -7.95139e-015 0
rfoot -5.6272 15.9259 -12.1714
rtoes 1.33186e-013 -2.01071e-013 -2.38542e-014
lfemur -8.08026 -14.6629 -17.874
ltibia -2.54444e-014 -1.43125e-014 3.26007e-014
lfoot -5.43751 -4.61206 12.7445
ltoes 1.61413e-013 -8.11538e-014 -1.0138e-014
2505
root -0.366102 3.62023 -0.364434 -272.785 -75.4464 82.5003
lowerback -17.0522 -1.59507 -4.33979
upperback -5.12203 -1.64858 -0.108287
thorax 4.17612 -0.941661 2.00013
lowerneck 15.3426 0.811955 -3.84108
upperneck -4.75554 0.394077 1.14556
head -3.89362 0.1882 0.940068
rshoulderjoint 3.62564 -4.87346 -47.7173
rhumerus 42.1923 -81.1193 -53.5721
rradius 42.9957 -2.40281e-014 1.77664e-014
rwrist -1.9905e-013 2.04286 6.55412e-014
rhand 18.6962 -1.88029 4.87793
lshoulderjoint 6.87797 11.5739 42.0151
lhumerus 50.0803 70.2073 53.5693
lradius 37.846 2.14687e-014 5.24792e-014
lwrist -2.17836e-013 0.498701 5.40715e-014
lhand 12.8503 -0.237574 1.87781
rfemur -8.77995 2.69827 9.5004
rtibia 1.03368e-014 -7.15625e-015 -9.54166e-015
rfoot -5.64394 15.947 -12.1682
rtoes -3.45885e-014 -6.97237e-014 1.33583e-013
lfemur -8.06974 -14.7212 -17.9055
ltibia -1.03368e-014 3.65764e-014 9.54166e-015
lfoot -5.46897 -4.57912 12.7402
ltoes 2.10712e-014 7.22458e-015 3.86636e-014
2506
root -0.367631 3.62069 -0.364746 -272.911 -75.4045 82.3602
lowerback -17.0839 -1.62842 -4.39642
upperback -5.10318 -1.68104 -0.0857469
thorax 4.21706 -0.958306 2.04835
lowerneck 15.3035 0.831102 -3.91869
upperneck -4.77863 0.402682 1.10255
head -3.89492 0.197005 0.938542
rshoulderjoint 3.65696 -4.88266 -47.9028
rhumerus 47.4624 -81.573 -58.3735
rradius 42.9567 -1.33186e-013 -6.32632e-014
rwrist 1.52576e-013 1.96974 8.2445e-014
rhand 18.9795 -1.96986 4.55725
lshoulderjoint 6.94814 11.5994 42.2198
lhumerus 65.2404 71.7634 69.1993
lradius 37.9791 1.45486e-013 4.85035e-014
lwrist 1.16807e-013 1.08969 -1.06568e-013
lhand 12.5628 -1.19271 3.8409
rfemur -8.79264 2.66136 9.49339
rtibia 1.35174e-014 -3.57812e-015 7.95139e-016
rfoot -5.66247 15.9026 -12.1806
rtoes -6.20208e-014 2.05245e-014 3.73715e-014
lfemur -8.08737 -14.7636 -17.9058
ltibia 9.54166e-015 -1.11319e-014 1.59028e-015
lfoot -5.49301 -4.6097 12.7411
ltoes -3.37934e-015 -9.068e-015 5.62561e-014
2507
root -0.369132 3.62111 -0.364793 -273.014 -75.3559 82.2029
lowerback -17.133 -1.65889 -4.46662
upperback -5.08262 -1.70511 -0.0963096
thorax 4.26788 -0.971352 2.07045
lowerneck 15.283 0.841843 -3.9456
upperneck -4.80575 0.407863 1.04592
head -3.90017 0.203855 0.924951
rshoulderjoint 3.75438 -4.98037 -48.0845
rhumerus 53.4674 -81.8139 -64.0953
rradius 42.9551 -3.81667e-014 1.3418e-015
rwrist 2.25321e-013 1.84376 4.39542e-014
rhand 19.3653 -1.96024 4.15877
lshoulderjoint 6.97918 11.5868 42.3616
lhumerus 82.9555 71.7677 87.4158
lradius 38.1607 7.23576e-014 1.20066e-013
lwrist 1.71516e-013 1.57295 9.068e-014
lhand 12.0559 -2.60911 5.75086
rfemur -8.8128 2.61856 9.44195
rtibia -1.59028e-015 0 7.95139e-016
rfoot -5.68393 15.9255 -12.1814
rtoes 1.23246e-014 -1.6847e-014 1.82882e-014
lfemur -8.11295 -14.8127 -17.9491
ltibia -1.59028e-015 -3.18055e-015 7.95139e-016
lfoot -5.50716 -4.60625 12.7456
ltoes 3.24019e-014 9.37549e-015 1.77912e-014
